<?xml version="1.0" encoding="utf-8"?>
<!-- Generator: Adobe Illustrator 25.2.0, SVG Export Plug-In . SVG Version: 6.00 Build 0)  -->
<svg version="1.1" id="Layer_1" xmlns="http://www.w3.org/2000/svg" xmlns:xlink="http://www.w3.org/1999/xlink" x="0px" y="0px"
	 viewBox="0 0 500 250" style="enable-background:new 0 0 500 250;" xml:space="preserve">
<style type="text/css">
	.st0{fill:#091A2E;}
	.st1{fill:#FFFFFF;}
	.st2{fill:#DB213E;}
</style>
<g>
	<path class="st0" d="M196.72,7.99v45.58h-71.63v191.91H71.62V53.57H0V7.99H196.72z"/>
	<path class="st1" d="M249.83,218.41c0,10.28-3.26,18.11-9.77,23.47c-6.51,5.37-13.88,8.05-22.1,8.05s-15.59-2.69-22.1-8.05
		c-6.51-5.37-9.77-13.2-9.77-23.47c0-10.28,3.26-18.1,9.77-23.47c6.51-5.37,13.88-8.06,22.1-8.06s15.59,2.69,22.1,8.06
		C246.57,200.3,249.83,208.12,249.83,218.41z"/>
	<path class="st2" d="M500,126.56c0,20.34-3.03,38.21-9.08,53.63c-6.06,15.42-14.34,28.33-24.85,38.73
		c-10.51,10.4-23.02,18.22-37.52,23.47c-14.51,5.25-30.1,7.88-46.78,7.88c-16.22,0-31.53-2.63-45.92-7.88
		c-14.39-5.26-26.96-13.08-37.7-23.47c-10.74-10.39-19.19-23.3-25.36-38.73c-6.17-15.42-9.25-33.3-9.25-53.63
		c0-20.33,3.2-38.21,9.59-53.63c6.39-15.42,15.02-28.39,25.87-38.9c10.85-10.51,23.42-18.39,37.7-23.65
		c14.28-5.25,29.3-7.88,45.06-7.88c16.22,0,31.53,2.63,45.92,7.88c14.39,5.26,26.96,13.14,37.7,23.65
		c10.74,10.51,19.19,23.47,25.36,38.9C496.92,88.35,500,106.23,500,126.56z M318.71,126.56c0,11.65,1.43,22.16,4.29,31.53
		c2.85,9.37,6.96,17.42,12.33,24.16c5.37,6.74,11.94,11.94,19.71,15.59c7.77,3.66,16.67,5.48,26.73,5.48
		c9.82,0,18.68-1.82,26.56-5.48c7.88-3.65,14.5-8.85,19.87-15.59c5.37-6.74,9.48-14.79,12.34-24.16c2.85-9.37,4.28-19.88,4.28-31.53
		c0-11.65-1.43-22.22-4.28-31.7c-2.86-9.48-6.97-17.59-12.34-24.33c-5.37-6.74-11.99-11.94-19.87-15.59
		c-7.88-3.65-16.74-5.48-26.56-5.48c-10.06,0-18.96,1.88-26.73,5.65c-7.77,3.77-14.34,9.03-19.71,15.77
		c-5.37,6.74-9.48,14.85-12.33,24.33C320.14,104.69,318.71,115.14,318.71,126.56z"/>
</g>
</svg>
